<svg xmlns="http://www.w3.org/2000/svg" viewBox="0 0 1280 320" width="1280" height="320" role="img" aria-label="CashPilot Android"><defs><clipPath id="c"><rect width="1280" height="320" rx="18"/></clipPath></defs><g clip-path="url(#c)"><rect width="1280" height="320" fill="#0B0620"/><path d="M731 164L790 164L804 122L818 140L900 140L914 91L928 114L1010 114L1024 60L1038 88L1120 88L1134 29L1148 62L1196 62" stroke="#2BD4F0" stroke-width="18" stroke-opacity=".16" fill="none" stroke-linejoin="round"/><path d="M731 164L790 164L804 122L818 140L900 140L914 91L928 114L1010 114L1024 60L1038 88L1120 88L1134 29L1148 62L1196 62" stroke="#2BD4F0" stroke-width="5" fill="none" stroke-linejoin="round" stroke-linecap="round"/><path d="M0-28L2.5-6L30 2L3 5L4 12L0 8L-4 12L-3 5L-30 2L-2.5-6Z" transform="translate(1224 56) rotate(78) scale(1.15)" fill="#FF4F7B"/><path fill="#FF4F7B" d="M158.8 110.5h-27.9q0-7.9-4.2-12.5q-4.1-4.6-11.8-4.6q-8.8 0-13 5.5q-4.1 5.6-4.1 15.5v8.4q0 9.8 4.1 15.4q4.2 5.6 12.8 5.6q8.4 0 12.8-4.4q4.3-4.3 4.3-12.2h27q0 18.6-11.5 28.5q-11.4 9.9-32.2 9.9q-23.3 0-35.2-11.9q-12-11.9-12-35.1q0-23.2 12-35.1q11.9-11.9 35.2-11.9q20.2 0 31.9 10.1q11.8 10.1 11.8 28.8zm82.3 4.9v27.2q0 2.3 1.1 3.7q1 1.5 3.1 1.5h4.8v15.1q-.4.3-2.1.9q-1.6.6-4.7 1.2q-3 .6-6.9.6q-7.7 0-12.7-2.3q-4.9-2.3-6.8-6.4q-5 3.9-11.2 6.3q-6.2 2.4-14.5 2.4q-24.5 0-24.5-19.6q0-10.1 5.4-15.5q5.5-5.3 15.8-7.3q10.3-2 26.9-2v-3.4q0-4.1-2.8-6.2q-2.8-2.1-7.3-2.1q-4.1 0-7.1 1.4q-3 1.5-3 4.7v.5h-25.8q-.2-.7-.2-1.9q0-9.9 9.5-15.7q9.4-5.8 27-5.8q15.9 0 26 5.4q10 5.3 10 17.3zm-48.2 27.2q0 6.6 9 6.6q5.1 0 9-2.8q3.9-2.7 3.9-6.8v-6q-11.2 0-16.5 2.5q-5.4 2.4-5.4 6.5zm130.3-27.4h-24.4q0-3.9-3.5-5.5q-2.3-1.3-5.9-1.3q-9.5 0-9.5 4.5q0 2.5 3.3 3.6q3.3 1 10.8 2.2q9.3 1.3 15.5 3.1q6.2 1.8 10.8 6.4q4.6 4.5 4.6 12.7q0 13.3-10 19q-9.9 5.7-26 5.7q-9.3 0-17.5-2.6q-8.1-2.6-13.3-8q-5.1-5.4-5.1-13.7h24.4v.5q.1 4.5 3.7 6.3q3.7 1.8 7.8 1.8q10.9 0 10.9-5.2q0-2.6-3.4-3.8q-3.4-1.2-11.2-2.5q-9.4-1.6-15.4-3.4q-6-1.9-10.5-6.3q-4.5-4.4-4.5-12.4q0-12.8 9.7-18.2q9.7-5.4 25.3-5.4q14 0 23.7 5.5q9.7 5.5 9.7 17zm60.2-22.5q12.1 0 18.2 6.8q6 6.7 6 19.4v45.1h-26.2v-42q0-4.5-2.3-7.2q-2.3-2.7-6.6-2.7q-4.8 0-7.9 3.2q-3 3.2-3 7.8v40.9h-26.3v-95.7h26.3v33.3q4.2-4.3 9.9-6.6q5.7-2.3 11.9-2.3zm119.8 10.3v1.7q0 8.5-3.7 15.3q-3.7 6.9-10.3 10.8q-6.6 3.9-15 3.9h-21.8v29.3h-29.2v-90.8h51q8.4 0 15 3.9q6.6 3.9 10.3 10.7q3.7 6.8 3.7 15.2zm-50.8 10.4h12q4.6 0 6.9-2.3q2.3-2.4 2.3-6.5v-1.1q0-4.2-2.3-6.5q-2.3-2.3-6.9-2.3h-12zm63.2-27.3v-17.8h26.3v17.8zm0 77.9v-69.7h26.3v69.7zm41.9 0v-95.7h26.3v95.7zm116.4-34.8q0 17.8-10.4 27.1q-10.5 9.3-28.9 9.3q-18.3 0-28.8-9.3q-10.4-9.2-10.4-27.1q0-18 10.4-27.2q10.5-9.3 28.8-9.3q18.4 0 28.9 9.3q10.4 9.3 10.4 27.2zm-52.2-3.7v7.5q0 14.8 12.9 14.8q13.1 0 13.1-14.8v-7.5q0-15-13.1-15q-12.9 0-12.9 15zm109.4-31.2v17.8h-14.8v26.6q0 4.7 1.6 6.9q1.6 2.2 5.8 2.2h7.4v15.4q-3.2 1.1-8.2 1.7q-5 .7-8.7.7q-11.6 0-17.9-4.2q-6.3-4.3-6.3-14.4v-34.9h-9.7v-17.8h10.8l5.7-21.1h19.5v21.1z"/><path fill="#2BD4F0" d="M68.6 222l6.3-23.8h7.8l6.2 23.8h-4.6l-1.3-5.2h-8.5l-1.3 5.2zm7-9.4h6.4l-2.9-11.6h-.6zm30.2 9.4v-23.8h8.5l4.8 20.7h.6v-20.7h4.4v23.8h-8.5l-4.8-20.7h-.6v20.7zm36.1 0v-3.9h3.1v-16h-3.1v-3.9h9.8q4.8 0 7.3 2.4q2.5 2.5 2.5 7.3v4.4q0 4.8-2.5 7.3q-2.5 2.4-7.3 2.4zm7.6-4.1h2.3q2.7 0 3.9-1.4q1.3-1.4 1.3-4v-4.8q0-2.6-1.3-4q-1.2-1.4-3.9-1.4h-2.3zm29.7 4.1v-23.8h10.4q2.2 0 3.9.8q1.6.8 2.6 2.2q.9 1.4.9 3.4v.4q0 2.1-1 3.4q-1.1 1.4-2.6 2v.6q1.4.1 2.1.9q.8.9.8 2.3v7.8h-4.5v-7.1q0-.9-.4-1.4q-.4-.5-1.4-.5h-6.3v9zm4.5-13.1h5.4q1.6 0 2.5-.8q.9-.9.9-2.3v-.4q0-1.4-.9-2.3q-.9-.8-2.5-.8h-5.4zm40.3 13.6q-4.5 0-7.2-2.5q-2.6-2.5-2.6-7v-5.8q0-4.5 2.6-7q2.7-2.5 7.2-2.5q4.4 0 7.1 2.5q2.7 2.5 2.7 7v5.8q0 4.5-2.7 7q-2.7 2.5-7.1 2.5zm0-4q2.5 0 3.9-1.5q1.4-1.5 1.4-3.9v-6q0-2.4-1.4-3.9q-1.4-1.5-3.9-1.5q-2.5 0-3.9 1.5q-1.4 1.5-1.4 3.9v6q0 2.4 1.4 3.9q1.4 1.5 3.9 1.5zm27.7 3.5v-23.8h4.5v23.8zm22.3 0v-3.9h3.1v-16h-3.1v-3.9h9.8q4.8 0 7.3 2.4q2.5 2.5 2.5 7.3v4.4q0 4.8-2.5 7.3q-2.5 2.4-7.3 2.4zm7.6-4.1h2.3q2.7 0 3.9-1.4q1.3-1.4 1.3-4v-4.8q0-2.6-1.3-4q-1.2-1.4-3.9-1.4h-2.3z"/><path fill="#B9B3D6" d="M74.7 272v-6.7l-6.1-10h3l3.1 5.3q.5.9.9 1.7q.4.8.9 2h-.9q.5-1.2.9-2q.4-.9.9-1.7l3.1-5.3h2.9l-6.1 10v6.7zm14.2.3q-1.7 0-3-.8q-1.4-.9-2.1-2.3q-.7-1.5-.7-3.4q0-2 .7-3.4q.7-1.5 2.1-2.3q1.3-.8 3-.8q1.8 0 3.1.8q1.4.8 2.1 2.3q.7 1.4.7 3.4q0 1.9-.7 3.4q-.7 1.4-2.1 2.3q-1.3.8-3.1.8zm0-2.1q1.2 0 1.9-.6q.8-.6 1.1-1.6q.4-1 .4-2.2q0-1.2-.4-2.2q-.3-1-1.1-1.6q-.7-.6-1.9-.6q-1.1 0-1.8.6q-.8.6-1.1 1.6q-.4 1-.4 2.2q0 1.2.4 2.2q.3 1 1.1 1.6q.7.6 1.8.6zm12.9 2q-1.2 0-2.2-.6q-1-.5-1.5-1.6q-.5-1-.5-2.6v-8h2.4v7.7q0 1.4.7 2.1q.8.8 2 .8q.8 0 1.5-.4q.6-.3 1-1q.4-.7.4-1.7v-7.5h2.5v12.6h-2.4v-3.1h.2q-.5 1.7-1.6 2.5q-1 .8-2.5.8zm9.6-.2v-12.6h2.4v2.1h.1q.4-1.1 1.2-1.6q.9-.6 2-.6q.2 0 .5 0q.3 0 .5 0v2.4q-.1-.1-.5-.1q-.4 0-.8 0q-.8 0-1.5.3q-.7.4-1.1 1q-.3.6-.3 1.5v7.6zm15 4.7v-17.3h2.4v2.1h.2q.3-.4.6-.9q.4-.5 1.2-.9q.7-.4 1.8-.4q1.6 0 2.7.8q1.2.7 1.9 2.2q.7 1.4.7 3.5q0 2-.7 3.4q-.7 1.5-1.8 2.3q-1.2.7-2.7.7q-1.2 0-1.9-.3q-.7-.4-1.1-.9q-.4-.6-.7-1h-.1v6.7zm5.7-6.6q1.1 0 1.8-.5q.7-.6 1.1-1.6q.4-1 .4-2.3q0-1.2-.4-2.2q-.4-1-1.1-1.5q-.7-.6-1.8-.6q-1.1 0-1.8.5q-.7.6-1.1 1.6q-.3.9-.3 2.2q0 1.3.3 2.3q.4 1 1.1 1.6q.8.5 1.8.5zm11-5.5v7.4h-2.5v-16.7h2.5v7.2h-.3q.5-1.7 1.6-2.4q1-.8 2.5-.8q1.3 0 2.2.5q1 .6 1.5 1.6q.6 1.1.6 2.6v8h-2.5v-7.7q0-1.3-.7-2.1q-.7-.8-2-.8q-.8 0-1.5.4q-.6.4-1 1.1q-.4.7-.4 1.7zm16.7 7.7q-1.8 0-3.1-.8q-1.3-.9-2.1-2.3q-.7-1.5-.7-3.4q0-2 .7-3.4q.8-1.5 2.1-2.3q1.3-.8 3.1-.8q1.7 0 3.1.8q1.3.8 2 2.3q.7 1.4.7 3.4q0 1.9-.7 3.4q-.7 1.4-2 2.3q-1.4.8-3.1.8zm0-2.1q1.1 0 1.8-.6q.8-.6 1.2-1.6q.3-1 .3-2.2q0-1.2-.3-2.2q-.4-1-1.2-1.6q-.7-.6-1.8-.6q-1.2 0-1.9.6q-.8.6-1.1 1.6q-.4 1-.4 2.2q0 1.2.4 2.2q.3 1 1.1 1.6q.7.6 1.9.6zm11-5.6v7.4h-2.4v-12.6h2.3v3.1h-.2q.5-1.7 1.6-2.4q1-.8 2.5-.8q1.3 0 2.2.5q1 .6 1.5 1.6q.6 1.1.6 2.6v8h-2.5v-7.7q0-1.3-.7-2.1q-.7-.8-1.9-.8q-.9 0-1.5.4q-.7.4-1.1 1.1q-.4.7-.4 1.7zm16.8 7.7q-1.8 0-3.2-.8q-1.3-.8-2.1-2.3q-.7-1.4-.7-3.4q0-1.9.7-3.4q.7-1.5 2-2.3q1.4-.8 3.1-.8q1.1 0 2.1.3q1 .4 1.8 1.1q.8.8 1.2 2q.5 1.2.5 2.9v.9h-10v-1.9h8.7l-1.1.6q0-1.1-.4-2q-.3-.9-1-1.4q-.7-.5-1.8-.5q-1 0-1.8.5q-.7.5-1.1 1.4q-.4.8-.4 1.8v1.2q0 1.3.4 2.2q.5.9 1.3 1.4q.8.4 1.8.4q.7 0 1.3-.2q.6-.2 1-.6q.4-.4.6-1l2.3.6q-.3 1-1 1.7q-.7.7-1.8 1.1q-1 .5-2.4.5zm8.7-10.5l-.3-6.5h2.5l-.2 6.5zm10.7 10.5q-1.4 0-2.4-.4q-1.1-.4-1.8-1.2q-.7-.8-.9-1.9l2.3-.5q.3 1 1 1.5q.7.5 1.8.5q1.2 0 1.9-.5q.7-.5.7-1.2q0-.6-.4-1q-.5-.4-1.4-.6l-2.1-.5q-1.7-.4-2.6-1.3q-.8-.8-.8-2.2q0-1.1.6-1.9q.6-.9 1.7-1.3q1.1-.5 2.5-.5q1.4 0 2.4.4q.9.4 1.5 1.1q.6.7.9 1.6l-2.2.5q-.3-.7-.8-1.2q-.6-.5-1.7-.5q-1.1 0-1.8.5q-.6.5-.6 1.2q0 .6.4 1q.5.4 1.5.6l2 .5q1.8.4 2.6 1.2q.9.8.9 2.2q0 1.1-.7 2q-.7.9-1.8 1.4q-1.2.5-2.7.5zm19.4 0q-1.9 0-3.2-.8q-1.3-.8-2.1-2.3q-.7-1.4-.7-3.4q0-1.9.7-3.4q.7-1.5 2-2.3q1.3-.8 3.1-.8q1.1 0 2.1.3q1 .4 1.8 1.1q.8.8 1.2 2q.5 1.2.5 2.9v.9h-10v-1.9h8.7l-1.1.6q0-1.1-.4-2q-.3-.9-1-1.4q-.8-.5-1.8-.5q-1 0-1.8.5q-.7.5-1.1 1.4q-.4.8-.4 1.8v1.2q0 1.3.4 2.2q.5.9 1.3 1.4q.8.4 1.8.4q.7 0 1.3-.2q.5-.2 1-.6q.4-.4.6-1l2.3.6q-.3 1-1 1.7q-.7.7-1.8 1.1q-1 .5-2.4.5zm11.8 0q-1.2 0-2.1-.5q-1-.4-1.5-1.3q-.6-.8-.6-2.1q0-1 .4-1.7q.4-.7 1.1-1.1q.7-.4 1.6-.6q.8-.2 1.7-.3q1.1-.1 1.8-.2q.7-.1 1.1-.3q.3-.2.3-.6v-.1q0-.7-.3-1.2q-.2-.5-.8-.7q-.5-.3-1.3-.3q-.8 0-1.4.3q-.6.2-1 .6q-.3.4-.5.8l-2.3-.6q.4-1.1 1.2-1.8q.8-.7 1.8-1q1-.3 2.2-.3q.7 0 1.6.2q.8.1 1.6.6q.7.5 1.2 1.3q.5.9.5 2.3v8.3h-2.4v-1.7h-.2q-.2.5-.7.9q-.5.5-1.2.8q-.7.3-1.8.3zm.6-2q1 0 1.7-.4q.7-.4 1.1-1q.4-.7.4-1.4v-1.6q-.1.1-.5.2q-.4.1-.9.2q-.4.1-.9.1q-.4.1-.7.1q-.7.1-1.3.3q-.6.2-.9.6q-.4.4-.4 1.1q0 .6.3 1q.3.4.9.6q.5.2 1.2.2zm9 1.7v-12.6h2.4v2.1h.1q.4-1.1 1.2-1.6q.9-.6 2-.6q.2 0 .5 0q.3 0 .5 0v2.4q-.1-.1-.5-.1q-.4 0-.8 0q-.8 0-1.5.3q-.7.4-1.1 1q-.3.6-.3 1.5v7.6zm11.6-7.4v7.4h-2.4v-12.6h2.3l.1 3.1h-.3q.5-1.7 1.6-2.4q1-.8 2.5-.8q1.3 0 2.3.5q.9.6 1.4 1.6q.6 1.1.6 2.6v8h-2.5v-7.7q0-1.3-.7-2.1q-.7-.8-1.9-.8q-.9 0-1.5.4q-.7.4-1.1 1.1q-.4.7-.4 1.7zm11.4 7.4v-12.6h2.5v12.6zm1.3-14.5q-.7 0-1.1-.4q-.5-.4-.5-1q0-.7.5-1.1q.4-.4 1.1-.4q.6 0 1.1.4q.4.4.4 1.1q0 .6-.4 1q-.5.4-1.1.4zm7 7.1v7.4h-2.5v-12.6h2.4v3.1h-.3q.6-1.7 1.6-2.4q1.1-.8 2.5-.8q1.3 0 2.3.5q.9.6 1.5 1.6q.5 1.1.5 2.6v8h-2.5v-7.7q0-1.3-.7-2.1q-.7-.8-1.9-.8q-.8 0-1.5.4q-.7.4-1 1.1q-.4.7-.4 1.7zm16.6 12.4q-1.5 0-2.5-.4q-1.1-.4-1.8-1q-.7-.6-1-1.4l2-.9q.3.3.6.7q.4.4 1 .7q.7.3 1.7.3q1.4 0 2.3-.7q.9-.7.9-2.1v-2.5h-.2q-.2.4-.6.9q-.4.5-1.1.9q-.8.3-1.9.3q-1.5 0-2.7-.7q-1.2-.7-1.8-2.1q-.7-1.3-.7-3.3q0-2 .7-3.5q.6-1.4 1.8-2.1q1.2-.8 2.7-.8q1.2 0 1.9.4q.7.4 1.1.9q.5.5.7.9h.1v-2.1h2.5v12.8q0 1.6-.8 2.7q-.7 1-2 1.6q-1.3.5-2.9.5zm0-7.2q1 0 1.8-.5q.7-.5 1.1-1.4q.3-1 .3-2.3q0-1.2-.3-2.2q-.4-.9-1.1-1.5q-.8-.5-1.8-.5q-1.1 0-1.8.6q-.8.5-1.1 1.5q-.4.9-.4 2.1q0 1.3.4 2.2q.3.9 1.1 1.4q.7.6 1.8.6zm18.6 2.5q-1.2 0-2.1-.5q-1-.4-1.5-1.3q-.6-.8-.6-2.1q0-1 .4-1.7q.4-.7 1.1-1.1q.7-.4 1.6-.6q.8-.2 1.7-.3q1.1-.1 1.8-.2q.7-.1 1.1-.3q.3-.2.3-.6v-.1q0-.7-.3-1.2q-.2-.5-.8-.7q-.5-.3-1.3-.3q-.8 0-1.4.3q-.6.2-1 .6q-.3.4-.5.8l-2.3-.6q.4-1.1 1.2-1.8q.8-.7 1.8-1q1-.3 2.1-.3q.8 0 1.7.2q.8.1 1.6.6q.7.5 1.2 1.3q.5.9.5 2.3v8.3h-2.4v-1.7h-.2q-.2.5-.7.9q-.5.5-1.2.8q-.7.3-1.8.3zm.6-2q1 0 1.7-.4q.7-.4 1.1-1q.4-.7.4-1.4v-1.6q-.1.1-.5.2q-.4.1-.9.2q-.4.1-.9.1q-.5.1-.7.1q-.7.1-1.3.3q-.6.2-.9.6q-.4.4-.4 1.1q0 .6.3 1q.3.4.9.6q.5.2 1.2.2zm9 6.4v-17.3h2.4v2.1h.2q.2-.4.6-.9q.4-.5 1.1-.9q.7-.4 1.9-.4q1.5 0 2.7.8q1.2.7 1.9 2.2q.7 1.4.7 3.5q0 2-.7 3.4q-.7 1.5-1.9 2.3q-1.2.7-2.7.7q-1.1 0-1.8-.3q-.8-.4-1.2-.9q-.4-.6-.6-1h-.1v6.7zm5.7-6.6q1 0 1.8-.5q.7-.6 1.1-1.6q.3-1 .3-2.3q0-1.2-.3-2.2q-.4-1-1.1-1.5q-.7-.6-1.8-.6q-1.1 0-1.8.5q-.7.6-1.1 1.6q-.4.9-.4 2.2q0 1.3.4 2.3q.4 1 1.1 1.6q.7.5 1.8.5zm8.5 6.6v-17.3h2.4v2.1h.2q.2-.4.6-.9q.4-.5 1.1-.9q.8-.4 1.9-.4q1.5 0 2.7.8q1.2.7 1.9 2.2q.7 1.4.7 3.5q0 2-.7 3.4q-.7 1.5-1.9 2.3q-1.1.7-2.7.7q-1.1 0-1.8-.3q-.7-.4-1.2-.9q-.4-.6-.6-1h-.1v6.7zm5.7-6.6q1.1 0 1.8-.5q.7-.6 1.1-1.6q.4-1 .4-2.3q0-1.2-.4-2.2q-.4-1-1.1-1.5q-.7-.6-1.8-.6q-1.1 0-1.8.5q-.7.6-1.1 1.6q-.4.9-.4 2.2q0 1.3.4 2.3q.4 1 1.1 1.6q.7.5 1.8.5zm13 2.2q-1.3 0-2.4-.4q-1.1-.4-1.7-1.2q-.7-.8-.9-1.9l2.3-.5q.2 1 1 1.5q.7.5 1.7.5q1.2 0 2-.5q.7-.5.7-1.2q0-.6-.5-1q-.4-.4-1.3-.6l-2.1-.5q-1.8-.4-2.6-1.3q-.9-.8-.9-2.2q0-1.1.6-1.9q.7-.9 1.8-1.3q1.1-.5 2.5-.5q1.3 0 2.3.4q1 .4 1.6 1.1q.6.7.8 1.6l-2.2.5q-.2-.7-.8-1.2q-.6-.5-1.7-.5q-1 0-1.7.5q-.7.5-.7 1.2q0 .6.5 1q.4.4 1.5.6l2 .5q1.7.4 2.6 1.2q.8.8.8 2.2q0 1.1-.7 2q-.6.9-1.8 1.4q-1.1.5-2.7.5zm7.7 3.9l.9-6.6h2.7l-1.9 6.6zm18.4-3.9q-1.8 0-3.1-.8q-1.3-.9-2.1-2.3q-.7-1.5-.7-3.4q0-2 .7-3.4q.8-1.5 2.1-2.3q1.3-.8 3.1-.8q1.7 0 3.1.8q1.3.8 2 2.3q.7 1.4.7 3.4q0 1.9-.7 3.4q-.7 1.4-2 2.3q-1.4.8-3.1.8zm0-2.1q1.1 0 1.9-.6q.7-.6 1.1-1.6q.3-1 .3-2.2q0-1.2-.3-2.2q-.4-1-1.1-1.6q-.8-.6-1.9-.6q-1.2 0-1.9.6q-.8.6-1.1 1.6q-.4 1-.4 2.2q0 1.2.4 2.2q.3 1 1.1 1.6q.7.6 1.9.6zm11-5.6v7.4h-2.4v-12.6h2.3l.1 3.1h-.3q.5-1.7 1.6-2.4q1-.8 2.5-.8q1.3 0 2.3.5q.9.6 1.4 1.6q.6 1.1.6 2.6v8h-2.5v-7.7q0-1.3-.7-2.1q-.7-.8-1.9-.8q-.9 0-1.5.4q-.7.4-1.1 1.1q-.4.7-.4 1.7zm17.4 11.9l.6-2l.3.1q.6.1 1.1.1q.5-.1.9-.5q.4-.4.6-1.2l.3-.9l-4.8-12.7h2.7l2.5 7.2q.4 1.2.6 2.3q.3 1.2.6 2.4h-.7q.3-1.2.6-2.4q.3-1.1.7-2.3l2.5-7.2h2.7l-5.5 14.3q-.3 1-.9 1.7q-.6.7-1.3 1q-.8.4-1.8.4q-.6 0-1-.1q-.5-.1-.7-.2zm18.2-4.2q-1.8 0-3.1-.8q-1.3-.9-2-2.3q-.7-1.5-.7-3.4q0-2 .7-3.4q.7-1.5 2-2.3q1.3-.8 3.1-.8q1.8 0 3.1.8q1.3.8 2.1 2.3q.7 1.4.7 3.4q0 1.9-.7 3.4q-.8 1.4-2.1 2.3q-1.3.8-3.1.8zm0-2.1q1.2 0 1.9-.6q.8-.6 1.1-1.6q.4-1 .4-2.2q0-1.2-.4-2.2q-.3-1-1.1-1.6q-.7-.6-1.9-.6q-1.1 0-1.9.6q-.7.6-1.1 1.6q-.3 1-.3 2.2q0 1.2.3 2.2q.4 1 1.1 1.6q.8.6 1.9.6zm12.9 2q-1.3 0-2.2-.6q-1-.5-1.5-1.6q-.6-1-.6-2.6v-8h2.5v7.7q0 1.4.7 2.1q.7.8 1.9.8q.9 0 1.5-.4q.7-.3 1.1-1q.4-.7.4-1.7v-7.5h2.4v12.6h-2.3v-3.1h.2q-.6 1.7-1.6 2.5q-1.1.8-2.5.8zm9.6-.2v-12.6h2.3v2.1h.2q.3-1.1 1.2-1.6q.9-.6 2-.6q.2 0 .5 0q.3 0 .5 0v2.4q-.1-.1-.5-.1q-.4 0-.8 0q-.8 0-1.5.3q-.7.4-1.1 1q-.4.6-.4 1.5v7.6zm19.7.2q-1.6 0-2.8-.7q-1.1-.8-1.8-2.3q-.7-1.4-.7-3.4q0-2.1.7-3.5q.7-1.5 1.9-2.2q1.1-.8 2.7-.8q1.1 0 1.8.4q.8.4 1.2.9q.4.5.6.9h.1v-6.2h2.5v16.7h-2.4v-2h-.2q-.2.4-.7 1q-.4.5-1.1.9q-.7.3-1.8.3zm.5-2.1q1 0 1.8-.5q.7-.6 1.1-1.6q.4-1 .4-2.3q0-1.3-.4-2.2q-.4-1-1.1-1.6q-.7-.5-1.8-.5q-1.1 0-1.8.6q-.7.5-1.1 1.5q-.4 1-.4 2.2q0 1.3.4 2.3q.4 1 1.1 1.6q.7.5 1.8.5zm12.5 2.2q-1.2 0-2.1-.5q-1-.4-1.6-1.3q-.5-.8-.5-2.1q0-1 .4-1.7q.4-.7 1.1-1.1q.7-.4 1.6-.6q.8-.2 1.7-.3q1.1-.1 1.8-.2q.7-.1 1-.3q.4-.2.4-.6v-.1q0-.7-.3-1.2q-.3-.5-.8-.7q-.5-.3-1.3-.3q-.9 0-1.4.3q-.6.2-1 .6q-.4.4-.5.8l-2.4-.6q.5-1.1 1.3-1.8q.8-.7 1.8-1q1-.3 2.1-.3q.8 0 1.6.2q.9.1 1.6.6q.8.5 1.3 1.3q.4.9.4 2.3v8.3h-2.4v-1.7h-.1q-.2.5-.7.9q-.5.5-1.2.8q-.8.3-1.8.3zm.6-2q1 0 1.7-.4q.7-.4 1.1-1q.4-.7.4-1.4v-1.6q-.2.1-.5.2q-.4.1-.9.2q-.5.1-.9.1q-.5.1-.8.1q-.7.1-1.2.3q-.6.2-1 .6q-.3.4-.3 1.1q0 .6.3 1q.3.4.8.6q.6.2 1.3.2zm13.5 2q-1.4 0-2.5-.4q-1-.4-1.7-1.2q-.7-.8-.9-1.9l2.3-.5q.3 1 1 1.5q.7.5 1.8.5q1.2 0 1.9-.5q.7-.5.7-1.2q0-.6-.4-1q-.5-.4-1.4-.6l-2.1-.5q-1.7-.4-2.6-1.3q-.8-.8-.8-2.2q0-1.1.6-1.9q.6-.9 1.7-1.3q1.1-.5 2.5-.5q1.4 0 2.3.4q1 .4 1.6 1.1q.6.7.9 1.6l-2.2.5q-.3-.7-.9-1.2q-.5-.5-1.7-.5q-1 0-1.7.5q-.6.5-.6 1.2q0 .6.4 1q.5.4 1.5.6l2 .5q1.8.4 2.6 1.2q.8.8.8 2.2q0 1.1-.6 2q-.7.9-1.8 1.4q-1.2.5-2.7.5zm10.3-7.7v7.4h-2.5v-16.7h2.5v7.2h-.3q.5-1.7 1.6-2.4q1-.8 2.5-.8q1.3 0 2.2.5q1 .6 1.5 1.6q.6 1.1.6 2.6v8h-2.5v-7.7q0-1.3-.7-2.1q-.7-.8-2-.8q-.8 0-1.5.4q-.6.4-1 1.1q-.4.7-.4 1.7zm17.6 7.6q-1.1 0-1.8-.3q-.8-.4-1.2-.9q-.4-.6-.6-1h-.2v2h-2.4v-16.7h2.5v6.2h.1q.2-.4.6-.9q.4-.5 1.1-.9q.7-.4 1.9-.4q1.5 0 2.7.8q1.2.7 1.9 2.2q.7 1.4.7 3.5q0 2-.7 3.4q-.7 1.5-1.9 2.3q-1.2.7-2.7.7zm-.5-2.1q1 0 1.8-.5q.7-.6 1.1-1.6q.3-1 .3-2.3q0-1.2-.3-2.2q-.4-1-1.1-1.5q-.7-.6-1.8-.6q-1.1 0-1.8.5q-.7.6-1.1 1.6q-.4.9-.4 2.2q0 1.3.4 2.3q.4 1 1.1 1.6q.7.5 1.8.5zm13.8 2.2q-1.8 0-3.1-.8q-1.3-.9-2-2.3q-.8-1.5-.8-3.4q0-2 .8-3.4q.7-1.5 2-2.3q1.3-.8 3.1-.8q1.8 0 3.1.8q1.3.8 2 2.3q.8 1.4.8 3.4q0 1.9-.8 3.4q-.7 1.4-2 2.3q-1.3.8-3.1.8zm0-2.1q1.1 0 1.9-.6q.7-.6 1.1-1.6q.4-1 .4-2.2q0-1.2-.4-2.2q-.4-1-1.1-1.6q-.8-.6-1.9-.6q-1.2 0-1.9.6q-.7.6-1.1 1.6q-.4 1-.4 2.2q0 1.2.4 2.2q.4 1 1.1 1.6q.7.6 1.9.6zm12.3 2.1q-1.2 0-2.1-.5q-1-.4-1.5-1.3q-.6-.8-.6-2.1q0-1 .4-1.7q.4-.7 1.1-1.1q.7-.4 1.6-.6q.8-.2 1.7-.3q1.1-.1 1.8-.2q.7-.1 1.1-.3q.3-.2.3-.6v-.1q0-.7-.3-1.2q-.3-.5-.8-.7q-.5-.3-1.3-.3q-.8 0-1.4.3q-.6.2-1 .6q-.3.4-.5.8l-2.4-.6q.5-1.1 1.3-1.8q.8-.7 1.8-1q1-.3 2.1-.3q.8 0 1.7.2q.8.1 1.6.6q.7.5 1.2 1.3q.5.9.5 2.3v8.3h-2.4v-1.7h-.2q-.2.5-.7.9q-.5.5-1.2.8q-.7.3-1.8.3zm.6-2q1 0 1.7-.4q.7-.4 1.1-1q.4-.7.4-1.4v-1.6q-.1.1-.5.2q-.4.1-.9.2q-.4.1-.9.1q-.5.1-.7.1q-.7.1-1.3.3q-.6.2-.9.6q-.4.4-.4 1.1q0 .6.3 1q.3.4.9.6q.5.2 1.2.2zm9 1.7v-12.6h2.4v2.1h.1q.4-1.1 1.2-1.6q.9-.6 2-.6q.2 0 .5 0q.3 0 .5 0v2.4q-.1-.1-.5-.1q-.4 0-.8 0q-.8 0-1.5.3q-.7.4-1.1 1q-.3.6-.3 1.5v7.6zm13.1.2q-1.5 0-2.7-.7q-1.2-.8-1.9-2.3q-.6-1.4-.6-3.4q0-2.1.6-3.5q.7-1.5 1.9-2.2q1.2-.8 2.7-.8q1.2 0 1.9.4q.7.4 1.1.9q.4.5.6.9h.2v-6.2h2.4v16.7h-2.4v-2h-.2q-.2.4-.6 1q-.4.5-1.1.9q-.7.3-1.9.3zm.6-2.1q1 0 1.7-.5q.8-.6 1.1-1.6q.4-1 .4-2.3q0-1.3-.4-2.2q-.3-1-1.1-1.6q-.7-.5-1.7-.5q-1.1 0-1.9.6q-.7.5-1.1 1.5q-.3 1-.3 2.2q0 1.3.4 2.3q.3 1 1.1 1.6q.7.5 1.8.5zm10.8 2.1q-.7 0-1.2-.5q-.5-.5-.5-1.2q0-.7.5-1.2q.5-.4 1.2-.4q.7 0 1.2.4q.4.5.4 1.2q0 .7-.4 1.2q-.5.5-1.2.5z"/></g></svg>
